<?xml version="1.0" encoding="UTF-8"?>
<svg version="1.1" xmlns="http://www.w3.org/2000/svg" x="0px" y="0px" width="24px" height="24px" viewBox="0 0 24 24">
    <title>Albert Heijn Logo</title>
    <path fill="#04A1D5" d="M21.2 10.3s-2.8-5.1-4.1-7.5c-.4-.8-.9-1.1-1.3-1.3-.4-.1-1 0-1.8.4C11.6 3.2 6.5 6 6.5 6s-1.8.8-2.2 2.1C4 9.4 2 16.2 2 16.2s-.2 1.5 1 1.9 7.4 2.1 7.4 2.1 6.1 1.8 7.4 2.1c1.2.4 1.8-1 1.8-1s1.9-6.8 2.3-8.1c.4-1.3-.7-2.9-.7-2.9"/>
    <path fill="#fff" d="M12.9 11c.4-.5.9-1.3 1.6-1.7.6-.4 1.5-.5 2.2-.2.8.4 1.3 1.1 1.3 1.9v6.4h-1.6v-6.2c0-.3-.2-.5-.5-.6s-.6.1-.8.3L13 13.5v3.9h-1.6v-1.8c-.4.4-.8.9-1.2 1.3-.5.4-1.2.6-2 .5-.2-.1-.4-.1-.6-.2-2-.9-1.4-3.6-1.5-5.6.1-.9.3-2 1.1-2.4.2 0 .3-.2.5-.2s.3-.1.5-.1c.2-.1.4 0 .5 0 1 .1 1.6.9 2.2 1.6.1.2.2.3.3.5V9.7l1.7-2.2V11zm-4.4-.4c-.3 0-.6.1-.7.4-.3 1-.2 2.3-.2 3.5.1.5 0 1 .5 1.3 0 0 .1 0 .1.1.3 0 .6 0 .8-.2.8-.6 1.3-1.4 1.9-2.2l-1.2-1.8c-.3-.5-.6-.9-1.2-1.1z"/>
</svg>
